<?xml version="1.0"?>
<svg xmlns="http://www.w3.org/2000/svg" version="1.2" baseProfile="tiny" width="66" height="100" viewBox="0 0 800 1353" stroke-linecap="round" stroke-linejoin="round">
<g id="justregionshapes">
<path d="M 701.5413 1106.3633 678.7014 1114.6977 657.7668 1111.1494 663.8044 1098.2475 657.1003 1088.0005 641.6914 1092.3008 624.749 1079.6111 587.3923 1094.7442 579.9964 1054.895 567.1083 1047.1878 569.8902 1025.5068 576.9331 1015.8023 569.5551 1002.8404 570.7223 991.4674 599.5847 959.7472 588.5307 931.2935 628.1768 929.2011 652.5941 913.1814 651.4945 898.9375 664.0359 899.7187 679.3371 878.649 719.7853 876.2919 752.9472 882.9739 785.7665 907.6087 795.6683 928.1878 799 950.2982 787.6574 984.3426 784.5283 1011.6714 754.4666 1043.9187 753.2033 1055.5472 728.3393 1069.303 733.4671 1085.4675 727.1875 1101.4746 701.5413 1106.3633 Z" id="East"/>
<path d="M 630.142 793.7437 642.2584 800.3073 662.0458 846.0382 657.8037 871.6079 641.6455 883.348 651.4945 898.9375 652.5941 913.1814 628.1768 929.2011 588.5307 931.2935 599.5847 959.7472 570.7223 991.4674 569.5551 1002.8404 543.4702 1021.5764 511.2391 1036.5722 506.4416 1007.8246 521.3108 977.7981 508.3161 957.3372 488.0857 945.8151 485.9249 932.8219 470.6083 920.877 476.3333 901.4708 458.5062 896.8098 464.9498 879.3345 459.9688 854.7224 444.0088 846.2006 441.2566 820.7508 451.1763 795.8673 466.3795 807.6753 480.0444 830.9128 499.3153 826.9955 512.0137 832.179 527.2832 812.8185 544.4218 804.8882 553.9887 807.8476 584.0289 804.202 596.2722 790.9447 617.6685 804.1716 630.142 793.7437 Z" id="East Midlands"/>
<path d="M 587.3923 1094.7442 624.749 1079.6111 641.6914 1092.3008 657.1003 1088.0005 663.8044 1098.2475 657.7668 1111.1494 649.9348 1132.5757 620.9757 1135.7292 587.2076 1114.6598 587.3923 1094.7442 Z" id="London"/>
<path d="M 324.7508 575.1416 347.4562 573.1776 351.1608 564.8677 381.7077 539.7697 399.9168 562.5103 392.263 568.6545 392.0549 596.5017 414.6517 601.4435 411.2727 617.9611 415.453 631.8879 427.3108 641.8088 427.4798 653.3157 416.4702 656.3329 413.5721 686.2365 401.0169 689.0714 392.1644 700.8999 400.0427 717.0384 421.8121 727.1699 438.5401 750.7601 426.9219 767.245 451.1763 795.8673 441.2566 820.7508 444.0088 846.2006 407.2881 871.039 393.7084 886.2894 374.9127 881.5405 364.8414 879.1096 354.5991 846.0033 330.0483 825.913 326.0136 808.6109 347.7737 808.0925 339.5532 793.039 345.1996 732.0744 355.3874 716.6734 332.718 717.083 296.7025 646.5927 300.9525 621.6409 312.8778 606.0627 311.1466 596.1755 324.7508 575.1416 Z" id="North-west"/>
<path d="M 439.9432 443.5547 414.1112 472.0721 426.6097 497.4102 409.3942 515.1527 399.7221 514.6793 381.7077 539.7697 351.1608 564.8677 347.4562 573.1776 324.7508 575.1416 307.725 580.2555 297.2882 591.4968 280.2117 592.7528 266.7116 602.4571 249.5422 600.5862 234.4505 589.2369 226.6995 615.5481 200.5391 592.2447 189.2503 586.9849 174.0772 598.9798 161.5289 584.3993 159.0293 566.3876 169.0314 563.9766 177.4351 541.3632 189.0533 529.7591 191.2097 514.1648 211.9542 486.1724 205.0401 469.8123 188.666 455.7146 190.939 437.2169 153.1636 406.081 145.2378 423.0218 153.5854 440.9599 141.1732 452.4287 125.0949 513.229 107.1479 513.8274 115.1015 493.6125 116.6754 472.1147 126.9926 424.3673 120.7197 411.2384 138.8765 380.4451 134.9971 354.6532 151.889 336.3355 150.4406 321.5218 165.7886 303.502 160.9809 297.8075 127.6211 328.3717 107.2337 317.793 97.554 296.8222 112.3853 286.086 122.5745 266.9996 114.5828 261.361 122.3838 240.6207 137.9102 218.1853 134.0117 198.1376 125.6726 196.8432 120.0446 172.0507 128.4159 142.553 128.0526 117.0798 149.9813 110.0925 175.6591 110.6696 161.4583 91.2948 173.9435 82.7342 167.9426 63.7059 187.3008 56.8023 183.5237 43.4611 189.1911 22.5501 200.6247 1.6433 234.2921 10.2694 247.6424 19.2207 270.6599 13.2827 291.9354 14.8168 309.4638 6.1609 346.6131 1.0006 359.0486 5.5745 351.0319 24.9895 357.595 33.5865 343.1311 56.1131 331.2439 60.5714 319.3411 76.2453 279.7451 106.6045 280.0459 124.5693 288.017 129.077 274.1695 163.1909 287.2045 165.6276 297.2402 157.1774 315.6784 154.8231 331.071 145.5483 357.6596 155.6182 382.0362 152.8094 426.9272 155.138 436.5953 150.6048 457.9401 164.0794 461.9121 186.2059 445.575 208.7006 436.76 231.6822 424.6208 277.6445 406.0589 298.7968 396.7475 326.455 375.2848 340.4151 373.3243 356.7253 392.5769 371.0009 369.9292 385.5898 359.4584 381.8391 331.901 404.6576 347.8862 421.3987 362.9463 417.4057 371.9693 404.2176 388.459 405.7052 414.3685 424.8418 430.9615 427.3251 439.9432 443.5547 Z" id="Scotland"/>
<path d="M 374.9127 881.5405 393.7084 886.2894 407.2881 871.039 444.0088 846.2006 459.9688 854.7224 464.9498 879.3345 458.5062 896.8098 476.3333 901.4708 470.6083 920.877 485.9249 932.8219 488.0857 945.8151 508.3161 957.3372 521.3108 977.7981 506.4416 1007.8246 492.4188 1019.5472 487.844 1035.2155 474.7868 1036.0824 464.9851 1016.7405 439.1721 1033.5038 425.6093 1027.649 418.7991 1039.3551 401.0947 1031.7777 400.6157 1049.8089 380.4444 1060.873 360.5762 1044.9238 347.2207 1045.4125 335.4628 1021.0901 344.0937 980.163 326.3653 966.5362 337.6391 956.1994 335.7025 942.58 347.9022 915.5066 334.1069 910.4129 340.2935 889.3118 374.9127 881.5405 Z" id="West Midlands"/>
<path d="M 630.142 793.7437 617.6685 804.1716 596.2722 790.9447 584.0289 804.202 553.9887 807.8476 544.4218 804.8882 527.2832 812.8185 512.0137 832.179 499.3153 826.9955 480.0444 830.9128 466.3795 807.6753 451.1763 795.8673 426.9219 767.245 438.5401 750.7601 421.8121 727.1699 400.0427 717.0384 392.1644 700.8999 401.0169 689.0714 413.5721 686.2365 416.4702 656.3329 427.4798 653.3157 448.0255 654.0767 467.8863 640.2573 482.9866 649.1068 499.4408 650.8959 512.4388 644.6168 537.2293 647.9955 551.7888 636.5993 576.3554 653.5413 588.3924 679.8849 604.3297 697.5581 611.565 737.1677 638.8433 775.782 626.3982 779.5413 630.142 793.7437 Z" id="Yorkshire and the Humber"/>
<path d="M 473.0777 1229.7947 462.3563 1221.9581 450.5608 1195.073 458.8705 1187.6362 480.7462 1193.457 479.2507 1170.847 472.9966 1155.7851 487.2262 1150.9681 488.8732 1120.7065 472.6842 1095.2497 474.7868 1036.0824 487.844 1035.2155 492.4188 1019.5472 506.4416 1007.8246 511.2391 1036.5722 543.4702 1021.5764 569.5551 1002.8404 576.9331 1015.8023 569.8902 1025.5068 567.1083 1047.1878 579.9964 1054.895 587.3923 1094.7442 587.2076 1114.6598 620.9757 1135.7292 649.9348 1132.5757 657.7668 1111.1494 678.7014 1114.6977 701.5413 1106.3633 723.7851 1118.7487 730.9139 1128.1057 774.523 1119.9049 771.9672 1159.6854 741.1641 1173.9409 734.2901 1196.7751 717.7991 1195.077 704.2239 1204.2326 679.4418 1211.659 664.6567 1226.6262 630.7271 1216.2599 611.7176 1214.0502 567.813 1223.4435 526.8205 1223.5826 519.9141 1218.2629 490.3384 1228.8993 473.0777 1229.7947 Z M 514.8732 1253.9338 489.815 1234.2922 510.1915 1224.8092 527.8288 1229.2333 534.394 1238.2282 514.8732 1253.9338 Z" id="South-east"/>
<path d="M 439.9432 443.5547 446.3853 455.5968 462.3817 463.1273 476.2445 483.7962 477.7862 509.7732 485.4747 546.0327 495.2841 568.6793 504.7723 603.0791 517.03 622.3877 551.7888 636.5993 537.2293 647.9955 512.4388 644.6168 499.4408 650.8959 482.9866 649.1068 467.8863 640.2573 448.0255 654.0767 427.4798 653.3157 427.3108 641.8088 415.453 631.8879 411.2727 617.9611 414.6517 601.4435 392.0549 596.5017 392.263 568.6545 399.9168 562.5103 381.7077 539.7697 399.7221 514.6793 409.3942 515.1527 426.6097 497.4102 414.1112 472.0721 439.9432 443.5547 Z" id="North-east"/>
<path d="M 330.0483 825.913 354.5991 846.0033 364.8414 879.1096 374.9127 881.5405 340.2935 889.3118 334.1069 910.4129 347.9022 915.5066 335.7025 942.58 337.6391 956.1994 326.3653 966.5362 344.0937 980.163 335.4628 1021.0901 347.2207 1045.4125 360.5762 1044.9238 380.4444 1060.873 378.6135 1096.795 374.2734 1100.5475 368.71 1107.4345 368.0283 1107.3939 366.2266 1108.1505 366.1763 1108.1846 338.5978 1111.8444 329.8226 1125.2369 306.5382 1129.1304 291.8462 1125.5912 273.9852 1109.5568 264.1206 1092.8589 250.6867 1099.3014 226.9697 1101.9762 222.5271 1083.4994 208.5532 1073.3969 188.0213 1071.2111 183.5809 1080.4406 160.4001 1090.7582 134.1245 1068.5792 144.7009 1060.9779 137.6226 1035.17 176.3944 1019.9983 182.6517 1011.0531 201.1578 1009.0914 233.0645 990.056 248.6989 956.9901 241.9952 936.5484 249.1566 924.4553 234.3659 888.6927 212.4948 895.4641 204.6622 906.1796 187.6846 896.7954 223.1844 870.1556 223.6134 858.9628 247.5011 838.5274 285.6492 831.8343 320.5543 822.0868 330.0483 825.913 Z M 218.36 854.2808 199.2415 831.6738 206.051 816.981 218.4567 808.8441 231.6209 812.2211 237.0055 825.9072 253.6403 828.6747 225.6583 856.1627 218.36 854.2808 Z" id="Wales"/>
<path d="M 334.5499 1130.2662 334.6168 1130.1336 366.1763 1108.1846 366.2266 1108.1505 367.2676 1107.4232 367.4589 1107.3538 368.0283 1107.3939 368.71 1107.4345 374.2734 1100.5475 378.6135 1096.795 380.4444 1060.873 400.6157 1049.8089 401.0947 1031.7777 418.7991 1039.3551 425.6093 1027.649 439.1721 1033.5038 464.9851 1016.7405 474.7868 1036.0824 472.6842 1095.2497 488.8732 1120.7065 487.2262 1150.9681 472.9966 1155.7851 479.2507 1170.847 480.7462 1193.457 458.8705 1187.6362 450.5608 1195.073 462.3563 1221.9581 473.0777 1229.7947 456.4866 1232.7947 446.6894 1252.4826 400.9442 1245.4983 396.8995 1252.2512 366.1452 1232.8564 353.1895 1229.9121 319.1224 1238.7655 295.4106 1258.3496 298.766 1280.638 280.5227 1296.269 277.9615 1308.0519 261.8098 1308.1515 253.852 1296.6697 239.4261 1295.5716 214.3215 1284.6108 191.48 1289.5387 170.1605 1287.5596 166.6552 1302.3246 140.0708 1311.6724 133.4814 1336.9771 121.8009 1343.4055 111.0461 1322.6538 75.6989 1311.6307 91.3241 1302.3035 102.5802 1304.7243 120.3794 1293.1628 140.2568 1271.552 145.1154 1253.3976 166.6924 1246.3193 191.1699 1218.3003 195.7929 1181.9839 217.2624 1186.2092 224.1174 1179.0533 227.5059 1156.3667 235.9306 1153.2365 292.7938 1151.3812 318.502 1159.5403 337.8724 1153.6877 347.8074 1128.4144 334.5499 1130.2662 Z" id="South-west"/>
</g>
</svg>